<?xml version="1.0" encoding="utf-8"?>
<!-- Generator: Adobe Illustrator 27.5.0, SVG Export Plug-In . SVG Version: 6.00 Build 0)  -->
<svg version="1.1" id="Layer_1" xmlns="http://www.w3.org/2000/svg" xmlns:xlink="http://www.w3.org/1999/xlink" x="0px" y="0px"
	 viewBox="0 0 1000 1000" style="enable-background:new 0 0 1000 1000;" xml:space="preserve">
<g id="Background">
	<rect x="-0.02" y="-0.02" style="fill:#FFFFFF;" width="999.59" height="1000.076"/>
</g>
<g id="Vector">
	<g>
		<path style="fill:#DAF6FA;" d="M935.404,358.471c-15.6,79.569-85.878,163.408-184.485,228.103
			c-37.679,24.714-79.484,46.637-123.968,64.453c-79.52,31.868-167.543,50.622-255.708,48.817
			C176.329,695.852,66.809,584.947,79.333,443.106c4.603-52.135,25.694-108.454,65.099-165.177
			c146.594-211.032,399.51-185.26,361.199-104.717C834.616,66.896,967.62,194.153,935.404,358.471z"/>
		<path style="fill:#DAF6FA;" d="M626.951,651.027c-79.52,31.868-167.543,50.622-255.708,48.817
			C176.329,695.852,66.809,584.947,79.333,443.106l0.014-0.036c-4.184,167.11,302.998-134.922,621.838-92.044
			C1020.004,393.912,693.059,621.78,626.951,651.027z"/>
		<g>
			<path style="fill:#4EBDD1;" d="M762.633,555.225c0.043,2.834-1.058,5.576-3.04,7.601c-1.989,2.024-4.703,3.168-7.544,3.182
				c-39.838,0.17-471.287,0.774-508.596,0.938c-5.143,0.021-9.349-4.099-9.42-9.242c0-0.192-0.007-0.391-0.007-0.59
				c-0.419-27.705-1.627-127.627-2.685-212.517c-0.646-52.518-1.243-99.29-1.549-119.642c-0.064-3.893,1.449-7.651,4.184-10.421
				c2.735-2.771,6.471-4.326,10.372-4.312c44.065,0.135,466.321,0.533,503.801,0.639c5.683,0.021,10.308,4.589,10.393,10.279
				C759.209,267.194,761.944,508.162,762.633,555.225z"/>
			<path style="fill:#B2EBF4;" d="M733.692,537.124c0.036,2.529-0.938,4.966-2.714,6.777c-1.769,1.804-4.191,2.827-6.72,2.834
				c-35.505,0.156-420.09,0.696-453.35,0.838c-4.582,0.021-8.333-3.651-8.404-8.24c-0.511-33.828-2.465-199.219-3.431-271.876
				c-0.142-10.336-0.256-18.789-0.348-24.728c-0.05-3.467,1.293-6.82,3.737-9.285c2.437-2.472,5.768-3.857,9.242-3.85
				c39.277,0.121,415.672,0.476,449.073,0.575c5.072,0.014,9.192,4.092,9.271,9.157c0.085,6.017,0.213,15.749,0.369,28.131
				C731.32,339.596,733.174,501.321,733.692,537.124z"/>
			<linearGradient id="SVGID_1_" gradientUnits="userSpaceOnUse" x1="303.4125" y1="330.0537" x2="451.2162" y2="330.0537">
				<stop  offset="0" style="stop-color:#7A7A7A"/>
				<stop  offset="1" style="stop-color:#000000"/>
			</linearGradient>
			<path style="fill:url(#SVGID_1_);" d="M441.578,355.4H313.05c-5.323,0-9.638-4.315-9.638-9.638v-31.417
				c0-5.323,4.315-9.638,9.638-9.638h128.528c5.323,0,9.638,4.315,9.638,9.638v31.417C451.216,351.085,446.901,355.4,441.578,355.4z
				"/>
			<path style="fill:#F1FFFF;" d="M426.375,339.895H297.847c-5.323,0-9.638-4.315-9.638-9.638V298.84
				c0-5.323,4.315-9.638,9.638-9.638h128.528c5.323,0,9.638,4.315,9.638,9.638v31.417
				C436.013,335.58,431.698,339.895,426.375,339.895z"/>
			<g>
				
					<rect x="311.568" y="301.836" transform="matrix(0.7071 0.7071 -0.7071 0.7071 314.4422 -130.0337)" style="fill:#E93C0C;" width="5.236" height="25.424"/>
				
					<rect x="311.568" y="301.836" transform="matrix(-0.7071 0.7071 -0.7071 -0.7071 758.7678 314.805)" style="fill:#E93C0C;" width="5.236" height="25.424"/>
			</g>
			<g>
				<path style="fill:#319CB0;" d="M355.867,323.116h-2.205l-7.898-12.232c-0.2-0.307-0.364-0.628-0.492-0.963h-0.064
					c0.057,0.328,0.086,1.031,0.086,2.108v11.087h-1.798v-15.347h2.333l7.684,12.04c0.321,0.5,0.528,0.842,0.621,1.027h0.043
					c-0.071-0.442-0.107-1.195-0.107-2.258v-10.809h1.798V323.116z"/>
				<path style="fill:#319CB0;" d="M366.076,323.372c-2.176,0-3.919-0.717-5.228-2.151c-1.309-1.434-1.964-3.3-1.964-5.597
					c0-2.469,0.667-4.438,2.001-5.907c1.334-1.47,3.15-2.205,5.447-2.205c2.119,0,3.826,0.714,5.121,2.14
					c1.295,1.427,1.942,3.293,1.942,5.597c0,2.504-0.664,4.484-1.99,5.94C370.079,322.645,368.302,323.372,366.076,323.372z
					 M366.205,309.139c-1.612,0-2.922,0.582-3.927,1.745c-1.006,1.163-1.509,2.689-1.509,4.58c0,1.891,0.49,3.412,1.472,4.564
					c0.981,1.152,2.26,1.728,3.837,1.728c1.684,0,3.011-0.549,3.981-1.648c0.97-1.099,1.456-2.636,1.456-4.613
					c0-2.026-0.471-3.592-1.412-4.698C369.158,309.692,367.86,309.139,366.205,309.139z"/>
				<path style="fill:#319CB0;" d="M386.346,317.615c0,1.819-0.385,3.234-1.156,4.244c-0.77,1.01-1.802,1.514-3.093,1.514
					c-0.599,0-1.092-0.085-1.477-0.257v-1.777c0.385,0.279,0.884,0.418,1.498,0.418c1.62,0,2.429-1.374,2.429-4.12v-9.867h1.798
					V317.615z"/>
				<path style="fill:#319CB0;" d="M396.427,323.372c-2.176,0-3.919-0.717-5.228-2.151c-1.309-1.434-1.964-3.3-1.964-5.597
					c0-2.469,0.667-4.438,2.001-5.907c1.334-1.47,3.15-2.205,5.447-2.205c2.119,0,3.826,0.714,5.121,2.14
					c1.295,1.427,1.942,3.293,1.942,5.597c0,2.504-0.664,4.484-1.99,5.94C400.43,322.645,398.653,323.372,396.427,323.372z
					 M396.556,309.139c-1.613,0-2.922,0.582-3.928,1.745c-1.006,1.163-1.509,2.689-1.509,4.58c0,1.891,0.491,3.412,1.472,4.564
					c0.981,1.152,2.26,1.728,3.837,1.728c1.684,0,3.011-0.549,3.981-1.648c0.97-1.099,1.455-2.636,1.455-4.613
					c0-2.026-0.471-3.592-1.412-4.698C399.509,309.692,398.211,309.139,396.556,309.139z"/>
				<path style="fill:#319CB0;" d="M406.765,323.116v-15.347h4.367c1.327,0,2.379,0.325,3.157,0.974
					c0.778,0.649,1.167,1.495,1.167,2.536c0,0.871-0.235,1.627-0.706,2.269c-0.471,0.642-1.12,1.099-1.948,1.37v0.043
					c1.034,0.121,1.862,0.512,2.483,1.172c0.621,0.66,0.931,1.518,0.931,2.574c0,1.313-0.471,2.376-1.413,3.189
					c-0.942,0.813-2.129,1.22-3.564,1.22H406.765z M408.563,309.396v4.955h1.841c0.984,0,1.759-0.237,2.322-0.712
					c0.563-0.474,0.845-1.143,0.845-2.007c0-1.491-0.981-2.237-2.943-2.237H408.563z M408.563,315.967v5.522h2.44
					c1.056,0,1.875-0.249,2.456-0.749c0.581-0.5,0.872-1.185,0.872-2.055c0-1.812-1.234-2.718-3.703-2.718H408.563z"/>
			</g>
			<path style="fill:#F1FFFF;" d="M642.241,379.415H473.164c-5.323,0-9.638-4.315-9.638-9.638V298.84
				c0-5.323,4.315-9.638,9.638-9.638h169.077c5.323,0,9.638,4.315,9.638,9.638v70.937
				C651.879,375.1,647.564,379.415,642.241,379.415z"/>
			<g>
				<path style="fill:#E93C0C;" d="M558.645,344.213h-4.318l-7.828-11.934c-0.459-0.697-0.777-1.223-0.954-1.576h-0.053
					c0.07,0.671,0.106,1.695,0.106,3.073v10.438h-4.04v-18.994h4.61l7.537,11.564c0.344,0.521,0.662,1.037,0.954,1.549h0.053
					c-0.071-0.441-0.106-1.311-0.106-2.609v-10.504h4.04V344.213z"/>
				<path style="fill:#E93C0C;" d="M571.016,344.544c-2.72,0-4.936-0.885-6.649-2.656c-1.713-1.77-2.57-4.077-2.57-6.921
					c0-3.002,0.87-5.431,2.609-7.285c1.74-1.854,4.044-2.781,6.914-2.781c2.711,0,4.903,0.887,6.577,2.662
					c1.673,1.775,2.51,4.115,2.51,7.02c0,2.985-0.868,5.391-2.603,7.219C576.069,343.63,573.806,344.544,571.016,344.544z
					 M571.202,328.584c-1.501,0-2.693,0.563-3.576,1.689c-0.883,1.126-1.325,2.616-1.325,4.471c0,1.881,0.442,3.369,1.325,4.464
					c0.883,1.095,2.04,1.642,3.47,1.642c1.475,0,2.644-0.532,3.51-1.596c0.865-1.064,1.298-2.541,1.298-4.431
					c0-1.969-0.42-3.501-1.258-4.596C573.806,329.131,572.659,328.584,571.202,328.584z"/>
				<path style="fill:#E93C0C;" d="M598.964,336.676c0,2.543-0.59,4.49-1.768,5.841c-1.179,1.351-2.886,2.027-5.119,2.027
					c-0.998,0-1.921-0.172-2.768-0.517v-4.013c0.733,0.556,1.554,0.835,2.464,0.835c1.952,0,2.927-1.448,2.927-4.344v-11.285h4.265
					V336.676z"/>
				<path style="fill:#E93C0C;" d="M611.15,344.544c-2.72,0-4.936-0.885-6.649-2.656c-1.713-1.77-2.57-4.077-2.57-6.921
					c0-3.002,0.87-5.431,2.609-7.285c1.74-1.854,4.044-2.781,6.914-2.781c2.711,0,4.903,0.887,6.577,2.662
					c1.673,1.775,2.51,4.115,2.51,7.02c0,2.985-0.868,5.391-2.603,7.219C616.203,343.63,613.94,344.544,611.15,344.544z
					 M611.335,328.584c-1.501,0-2.693,0.563-3.576,1.689c-0.883,1.126-1.325,2.616-1.325,4.471c0,1.881,0.442,3.369,1.325,4.464
					c0.883,1.095,2.04,1.642,3.47,1.642c1.475,0,2.645-0.532,3.51-1.596c0.865-1.064,1.298-2.541,1.298-4.431
					c0-1.969-0.42-3.501-1.258-4.596C613.94,329.131,612.792,328.584,611.335,328.584z"/>
				<path style="fill:#E93C0C;" d="M623.693,344.213v-18.994h6.914c2.119,0,3.748,0.389,4.887,1.166
					c1.139,0.777,1.709,1.872,1.709,3.285c0,1.024-0.346,1.921-1.04,2.689c-0.693,0.768-1.579,1.303-2.656,1.603v0.053
					c1.351,0.168,2.43,0.667,3.239,1.497c0.808,0.83,1.212,1.841,1.212,3.033c0,1.74-0.623,3.119-1.868,4.139
					c-1.245,1.02-2.945,1.53-5.1,1.53H623.693z M627.972,328.372v4.503h1.881c0.883,0,1.578-0.214,2.086-0.642
					c0.508-0.428,0.762-1.018,0.762-1.768c0-1.395-1.042-2.093-3.126-2.093H627.972z M627.972,336.054v5.007h2.318
					c0.989,0,1.764-0.23,2.325-0.689c0.561-0.459,0.841-1.086,0.841-1.881c0-0.759-0.276-1.356-0.828-1.788
					c-0.552-0.433-1.323-0.649-2.312-0.649H627.972z"/>
			</g>
			<g>
				
					<rect x="500.966" y="311.638" transform="matrix(0.7071 0.7071 -0.7071 0.7071 384.485 -259.6204)" style="fill:#E93C0C;" width="9.337" height="45.342"/>
				
					<rect x="500.966" y="311.638" transform="matrix(-0.7071 0.7071 -0.7071 -0.7071 1099.5656 213.1664)" style="fill:#E93C0C;" width="9.337" height="45.342"/>
			</g>
			<path style="fill:#A2D6DE;" d="M528.236,421.667v85.998c0,3.779-3.062,6.841-6.841,6.841H326.95
				c-3.779,0-6.848-3.062-6.848-6.841v-85.998c0-3.779,3.069-6.848,6.848-6.848h194.445
				C525.175,414.818,528.236,417.887,528.236,421.667z"/>
			<path style="fill:#91C0C7;" d="M528.236,421.667v2.046H320.102v-2.046c0-3.779,3.069-6.848,6.848-6.848h194.445
				C525.175,414.818,528.236,417.887,528.236,421.667z"/>
			<rect x="335.072" y="431.77" style="fill:#B2EBF4;" width="90.77" height="47.738"/>
			<rect x="448.137" y="431.77" style="fill:#B2EBF4;" width="67.84" height="67.84"/>
			<g>
				<path style="fill:#F1FFFF;" d="M730.417,267.457H259.073c-0.142-10.336-0.256-18.789-0.348-24.728
					c-0.05-3.467,1.293-6.82,3.737-9.285c2.437-2.472,5.768-3.857,9.242-3.85c39.277,0.121,415.672,0.476,449.073,0.575
					c5.072,0.014,9.192,4.092,9.271,9.157C730.133,245.343,730.261,255.075,730.417,267.457z"/>
				<path style="fill:#FFC83A;" d="M282.404,250.003c0,2.821-2.287,5.108-5.108,5.108c-2.821,0-5.108-2.287-5.108-5.108
					c0-2.821,2.287-5.108,5.108-5.108C280.117,244.895,282.404,247.182,282.404,250.003z"/>
				<path style="fill:#E93C0C;" d="M296.74,250.003c0,2.821-2.287,5.108-5.108,5.108c-2.821,0-5.108-2.287-5.108-5.108
					c0-2.821,2.287-5.108,5.108-5.108C294.453,244.895,296.74,247.182,296.74,250.003z"/>
				<circle style="fill:#815CB0;" cx="305.969" cy="250.003" r="5.108"/>
				<rect x="324.791" y="241.277" style="fill:#DEEBEB;" width="17.452" height="17.452"/>
				<rect x="345.23" y="241.277" style="fill:#DEEBEB;" width="17.452" height="17.452"/>
				<rect x="370.199" y="241.277" style="fill:#DEEBEB;" width="26.614" height="17.452"/>
				<rect x="682.52" y="241.277" style="fill:#DEEBEB;" width="17.452" height="17.452"/>
				<g>
					<path style="fill:#ABB5B5;" d="M696.603,255.393H685.89v-7.826h10.713V255.393z M686.467,254.816h9.559v-6.672h-9.559V254.816z
						"/>
				</g>
				<g>
					<rect x="690.957" y="244.297" style="fill:#ABB5B5;" width="0.577" height="7.182"/>
				</g>
				<g>
					<polygon style="fill:#ABB5B5;" points="692.613,246.173 691.246,244.719 689.879,246.173 689.459,245.778 691.246,243.876 
						693.034,245.778 					"/>
				</g>
				<rect x="703.462" y="241.277" style="fill:#DEEBEB;" width="17.452" height="17.452"/>
				<g>
					<path style="fill:#ABB5B5;" d="M719.058,253.105h-9.779v-9.133h9.779V253.105z M709.93,252.454h8.478v-7.832h-8.478V252.454z"
						/>
				</g>
				<g>
					<path style="fill:#ABB5B5;" d="M714.105,256.617h-8.38v-8.38h8.38V256.617z M706.302,256.04h7.226v-7.226h-7.226V256.04z"/>
				</g>
				<rect x="405.64" y="241.277" style="fill:#DEEBEB;" width="273.625" height="17.452"/>
				<g>
					<path style="fill:#ABB5B5;" d="M414.84,252.136c-2.39,0-4.335-1.945-4.335-4.335c0-2.39,1.945-4.335,4.335-4.335
						c2.39,0,4.335,1.945,4.335,4.335C419.175,250.191,417.23,252.136,414.84,252.136z M414.84,244.887
						c-1.607,0-2.914,1.307-2.914,2.914c0,1.607,1.307,2.914,2.914,2.914c1.607,0,2.914-1.307,2.914-2.914
						C417.754,246.194,416.447,244.887,414.84,244.887z"/>
				</g>
				<g>
					
						<rect x="417.316" y="250.542" transform="matrix(0.8577 -0.5142 0.5142 0.8577 -70.6541 250.9489)" style="fill:#ABB5B5;" width="1.421" height="5.147"/>
				</g>
				<g>
					<polygon style="fill:#ABB5B5;" points="335.107,255.64 329.576,250.003 335.107,244.365 336.694,245.923 332.691,250.003 
						336.694,254.083 					"/>
				</g>
				<g>
					<polygon style="fill:#ABB5B5;" points="352.366,255.64 350.779,254.083 354.782,250.003 350.779,245.923 352.366,244.365 
						357.897,250.003 					"/>
				</g>
				<g>
					<rect x="377.449" y="245.467" style="fill:#ABB5B5;" width="12.116" height="1.421"/>
				</g>
				<g>
					<rect x="377.449" y="249.292" style="fill:#ABB5B5;" width="12.116" height="1.421"/>
				</g>
				<g>
					<rect x="377.449" y="253.118" style="fill:#ABB5B5;" width="12.116" height="1.421"/>
				</g>
			</g>
		</g>
		<g>
			
				<linearGradient id="SVGID_00000111898997609899243220000017264875479771463561_" gradientUnits="userSpaceOnUse" x1="236.6949" y1="465.9608" x2="337.8525" y2="430.102">
				<stop  offset="0" style="stop-color:#7A7A7A"/>
				<stop  offset="1" style="stop-color:#000000"/>
			</linearGradient>
			<path style="fill:url(#SVGID_00000111898997609899243220000017264875479771463561_);" d="M338.664,545.408
				c0.043,2.841-1.051,5.576-3.04,7.601c-1.989,2.025-4.703,3.175-7.544,3.19c-38.226,0.163-59.423,0.725-94.054,0.916
				c-0.419-27.705-1.627-127.627-2.685-212.517c43.369,0.142,55.609,0.526,92.839,0.639c5.69,0.021,10.315,4.589,10.393,10.272
				c0.085,5.797,0.199,12.403,0.341,19.614C335.901,425.155,338.061,504.277,338.664,545.408z"/>
			<path style="fill:#FFFFFF;" d="M304.453,523.926c0.043,2.841-1.051,5.576-3.04,7.601c-1.989,2.025-4.703,3.175-7.544,3.19
				c-39.831,0.17-61.171,0.774-98.487,0.938c-5.143,0.021-9.341-4.099-9.42-9.242c-0.597-39.327-2.934-118.484-3.971-172.771
				c-0.1-5.548-0.192-10.833-0.27-15.792c-0.057-3.893,1.449-7.651,4.184-10.421c2.735-2.77,6.479-4.326,10.372-4.312
				c44.065,0.135,56.219,0.526,93.692,0.639c5.69,0.021,10.315,4.589,10.393,10.272c0.085,5.797,0.199,12.403,0.341,19.613
				C301.689,403.673,303.849,482.795,304.453,523.926z"/>
			<rect x="210.333" y="464.172" style="fill:#EBEBEB;" width="68.613" height="55.765"/>
			<g>
				<path style="fill:#E8FCFF;" d="M273.764,421.531c0,7.928-2.938,15.173-7.794,20.697c-5.747,6.563-14.193,10.707-23.61,10.707
					c-8.462,0-16.142-3.348-21.785-8.788c-5.93-5.712-9.619-13.734-9.619-22.616c0-17.344,14.06-31.404,31.404-31.404
					C259.704,390.128,273.764,404.188,273.764,421.531z"/>
				<path style="fill:#A0D3DB;" d="M265.97,442.228c-5.747,6.563-14.193,10.707-23.61,10.707c-8.462,0-16.142-3.348-21.785-8.788
					c3.872-3.343,16.745-7.389,15.197-13.298c-3.581-13.694-4.001-29.643,8.927-29.381c12.928,0.257,3.64,23.254,4.639,30.261
					C250.15,437.401,260.223,439.216,265.97,442.228z"/>
			</g>
			<g>
				
					<rect x="238.418" y="399.586" transform="matrix(0.7071 0.7071 -0.7071 0.7071 369.7757 -48.2126)" style="fill:#E93C0C;" width="9.337" height="45.342"/>
				
					<rect x="238.418" y="399.586" transform="matrix(-0.7071 0.7071 -0.7071 -0.7071 713.5543 548.9538)" style="fill:#E93C0C;" width="9.337" height="45.342"/>
			</g>
			<path style="fill:#AD7BEC;" d="M300.702,353.641H181.99c-0.1-5.548-0.192-10.833-0.27-15.792
				c-0.057-3.893,1.449-7.651,4.184-10.421c2.735-2.77,6.479-4.326,10.372-4.312c44.065,0.135,56.219,0.526,93.692,0.639
				c5.69,0.021,10.315,4.589,10.393,10.272C300.446,339.824,300.56,346.43,300.702,353.641z"/>
			<rect x="191.564" y="333.721" style="fill:#DEEBEB;" width="10.874" height="10.874"/>
			<rect x="204.299" y="333.721" style="fill:#DEEBEB;" width="10.874" height="10.874"/>
			<rect x="219.857" y="333.721" style="fill:#DEEBEB;" width="16.583" height="10.874"/>
			<rect x="242.36" y="333.721" style="fill:#DEEBEB;" width="10.874" height="10.874"/>
			<g>
				<path style="fill:#ABB5B5;" d="M251.135,342.516h-6.675v-4.876h6.675V342.516z M244.819,342.156h5.956v-4.158h-5.956V342.156z"
					/>
			</g>
			<g>
				<rect x="247.617" y="335.603" style="fill:#ABB5B5;" width="0.359" height="4.475"/>
			</g>
			<g>
				<polygon style="fill:#ABB5B5;" points="248.649,336.771 247.797,335.865 246.946,336.771 246.683,336.525 247.797,335.34 
					248.911,336.525 				"/>
			</g>
			<g>
				<polygon style="fill:#ABB5B5;" points="197.992,342.67 194.546,339.158 197.992,335.645 198.98,336.615 196.486,339.158 
					198.98,341.7 				"/>
			</g>
			<g>
				<polygon style="fill:#ABB5B5;" points="208.745,342.67 207.756,341.7 210.25,339.158 207.756,336.615 208.745,335.645 
					212.191,339.158 				"/>
			</g>
			<g>
				<rect x="224.374" y="336.331" style="fill:#ABB5B5;" width="7.549" height="0.885"/>
			</g>
			<g>
				<rect x="224.374" y="338.715" style="fill:#ABB5B5;" width="7.549" height="0.885"/>
			</g>
			<g>
				<rect x="224.374" y="341.099" style="fill:#ABB5B5;" width="7.549" height="0.885"/>
			</g>
		</g>
		<g>
			<path style="fill:#FFFFFF;" d="M793.783,631.648c0.043,2.842-1.058,5.577-3.04,7.601c-1.989,2.024-4.703,3.168-7.544,3.182
				c-39.838,0.178-178.781,0.781-216.09,0.938c-5.143,0.028-9.349-4.092-9.427-9.235c-0.583-38.517-2.834-186.972-3.9-257.136
				c-0.135-8.816-0.249-16.395-0.341-22.37c-0.057-3.893,1.449-7.651,4.191-10.421c2.735-2.771,6.472-4.326,10.372-4.312
				c44.065,0.135,173.816,0.526,211.295,0.639c5.683,0.021,10.308,4.589,10.393,10.279c0.092,6.308,0.22,15.28,0.384,26.185
				C791.07,445.67,793.187,591.042,793.783,631.648z"/>
			<g>
				<g>
					<path style="fill:#319CB0;" d="M674.857,418.315h-3.157l-4.805-9.749c-0.043-0.086-0.089-0.186-0.139-0.3
						c-0.05-0.114-0.1-0.23-0.15-0.348c-0.05-0.118-0.096-0.23-0.139-0.337c-0.043-0.107-0.075-0.203-0.096-0.289h-0.065
						c-0.036,0.264-0.075,0.56-0.118,0.888c-0.043,0.328-0.103,0.653-0.182,0.974l-1.959,9.161h-3.242l3.242-15.347h3.425
						l4.602,9.386c0.036,0.078,0.081,0.173,0.134,0.283c0.053,0.111,0.107,0.225,0.161,0.343c0.053,0.118,0.103,0.234,0.15,0.348
						c0.046,0.114,0.08,0.214,0.102,0.3h0.043c0.007-0.107,0.018-0.227,0.032-0.358c0.014-0.132,0.032-0.266,0.053-0.401
						c0.021-0.136,0.044-0.268,0.07-0.396c0.025-0.128,0.048-0.242,0.069-0.342l1.948-9.161h3.264L674.857,418.315z"/>
					<path style="fill:#319CB0;" d="M693.96,409.304c0,0.614-0.054,1.231-0.16,1.852c-0.107,0.621-0.266,1.222-0.476,1.803
						c-0.211,0.582-0.474,1.14-0.792,1.675c-0.318,0.535-0.687,1.024-1.108,1.466c-0.357,0.378-0.745,0.721-1.167,1.027
						c-0.421,0.307-0.879,0.568-1.375,0.781c-0.496,0.214-1.033,0.38-1.611,0.497c-0.578,0.118-1.202,0.177-1.873,0.177
						c-1.013,0-1.917-0.167-2.713-0.503c-0.795-0.335-1.468-0.797-2.017-1.386c-0.55-0.589-0.969-1.286-1.258-2.092
						c-0.289-0.806-0.433-1.68-0.433-2.622c0-0.664,0.057-1.318,0.171-1.964c0.114-0.646,0.287-1.266,0.519-1.862
						c0.232-0.596,0.521-1.163,0.867-1.702c0.346-0.539,0.747-1.033,1.204-1.482c0.357-0.342,0.742-0.651,1.156-0.926
						c0.414-0.275,0.86-0.512,1.338-0.712c0.478-0.199,0.991-0.353,1.541-0.46c0.549-0.107,1.138-0.161,1.766-0.161
						c0.949,0,1.818,0.15,2.606,0.45c0.788,0.3,1.464,0.733,2.028,1.3c0.564,0.568,1.003,1.259,1.316,2.076
						C693.803,407.355,693.96,408.277,693.96,409.304z M690.3,409.422c0-0.578-0.073-1.095-0.22-1.552
						c-0.146-0.456-0.355-0.844-0.626-1.161c-0.271-0.317-0.601-0.56-0.99-0.728c-0.389-0.167-0.829-0.251-1.321-0.251
						c-0.571,0-1.113,0.132-1.627,0.396c-0.514,0.264-0.97,0.631-1.37,1.102c-0.243,0.285-0.457,0.614-0.642,0.984
						c-0.186,0.371-0.343,0.764-0.471,1.177c-0.128,0.414-0.227,0.837-0.294,1.268c-0.068,0.432-0.102,0.858-0.102,1.279
						c0,0.578,0.073,1.095,0.219,1.552c0.146,0.457,0.355,0.84,0.626,1.151c0.271,0.31,0.597,0.548,0.979,0.712
						c0.382,0.164,0.808,0.246,1.279,0.246c0.585,0,1.143-0.128,1.675-0.385c0.531-0.257,0.997-0.639,1.396-1.145
						c0.25-0.3,0.467-0.637,0.653-1.011c0.186-0.375,0.339-0.765,0.46-1.172c0.121-0.407,0.214-0.82,0.278-1.242
						C690.268,410.221,690.3,409.815,690.3,409.422z"/>
					<path style="fill:#319CB0;" d="M708.601,412.183c-0.207,0.985-0.492,1.871-0.856,2.659c-0.364,0.788-0.821,1.461-1.37,2.017
						c-0.549,0.556-1.197,0.983-1.942,1.279c-0.746,0.296-1.607,0.444-2.584,0.444c-0.171,0-0.368-0.014-0.589-0.043
						c-0.221-0.029-0.44-0.064-0.658-0.107c-0.218-0.043-0.422-0.093-0.615-0.15c-0.193-0.057-0.346-0.11-0.46-0.16l0.631-3.2
						c0.107,0.086,0.236,0.17,0.385,0.252c0.15,0.082,0.308,0.153,0.476,0.214c0.168,0.061,0.337,0.111,0.508,0.15
						c0.171,0.039,0.335,0.059,0.492,0.059c0.806,0,1.465-0.283,1.975-0.851c0.51-0.567,0.89-1.453,1.14-2.66l1.958-9.118h3.478
						L708.601,412.183z"/>
					<path style="fill:#319CB0;" d="M726.323,409.304c0,0.614-0.053,1.231-0.16,1.852c-0.107,0.621-0.266,1.222-0.476,1.803
						c-0.211,0.582-0.475,1.14-0.792,1.675c-0.318,0.535-0.687,1.024-1.108,1.466c-0.357,0.378-0.746,0.721-1.167,1.027
						c-0.421,0.307-0.879,0.568-1.375,0.781c-0.496,0.214-1.033,0.38-1.611,0.497c-0.578,0.118-1.202,0.177-1.873,0.177
						c-1.013,0-1.917-0.167-2.713-0.503c-0.796-0.335-1.468-0.797-2.017-1.386c-0.55-0.589-0.969-1.286-1.258-2.092
						c-0.289-0.806-0.433-1.68-0.433-2.622c0-0.664,0.057-1.318,0.171-1.964c0.114-0.646,0.287-1.266,0.519-1.862
						c0.232-0.596,0.521-1.163,0.867-1.702c0.346-0.539,0.747-1.033,1.204-1.482c0.357-0.342,0.742-0.651,1.156-0.926
						c0.414-0.275,0.86-0.512,1.338-0.712c0.478-0.199,0.991-0.353,1.541-0.46c0.549-0.107,1.138-0.161,1.766-0.161
						c0.949,0,1.818,0.15,2.606,0.45c0.788,0.3,1.464,0.733,2.028,1.3c0.564,0.568,1.002,1.259,1.316,2.076
						C726.166,407.355,726.323,408.277,726.323,409.304z M722.663,409.422c0-0.578-0.074-1.095-0.22-1.552
						c-0.146-0.456-0.355-0.844-0.626-1.161c-0.271-0.317-0.601-0.56-0.99-0.728c-0.389-0.167-0.829-0.251-1.321-0.251
						c-0.571,0-1.113,0.132-1.627,0.396c-0.514,0.264-0.97,0.631-1.37,1.102c-0.243,0.285-0.457,0.614-0.642,0.984
						c-0.186,0.371-0.343,0.764-0.471,1.177c-0.128,0.414-0.226,0.837-0.294,1.268c-0.068,0.432-0.102,0.858-0.102,1.279
						c0,0.578,0.073,1.095,0.219,1.552c0.146,0.457,0.355,0.84,0.626,1.151c0.271,0.31,0.597,0.548,0.979,0.712
						c0.382,0.164,0.808,0.246,1.279,0.246c0.585,0,1.143-0.128,1.675-0.385c0.531-0.257,0.997-0.639,1.397-1.145
						c0.25-0.3,0.467-0.637,0.653-1.011c0.186-0.375,0.339-0.765,0.46-1.172c0.121-0.407,0.214-0.82,0.278-1.242
						C722.631,410.221,722.663,409.815,722.663,409.422z"/>
					<path style="fill:#319CB0;" d="M740.653,406.436c0,0.478-0.079,0.924-0.235,1.337c-0.157,0.414-0.391,0.787-0.701,1.119
						c-0.31,0.331-0.694,0.615-1.15,0.85c-0.457,0.236-0.989,0.41-1.595,0.524v0.043c0.485,0.072,0.91,0.202,1.274,0.391
						c0.364,0.189,0.669,0.423,0.915,0.701c0.246,0.278,0.43,0.592,0.551,0.942c0.121,0.35,0.182,0.724,0.182,1.124
						c0,0.692-0.136,1.333-0.407,1.921c-0.271,0.589-0.678,1.1-1.22,1.535c-0.543,0.435-1.219,0.776-2.028,1.022
						c-0.81,0.246-1.757,0.369-2.841,0.369h-6.089l3.264-15.347h5.437c0.835,0,1.546,0.087,2.135,0.262
						c0.589,0.175,1.068,0.417,1.44,0.728c0.371,0.31,0.642,0.678,0.813,1.102C740.567,405.486,740.653,405.944,740.653,406.436z
						 M736.233,413.489c0-0.535-0.186-0.963-0.557-1.284c-0.371-0.321-0.924-0.482-1.659-0.482h-1.819l-0.878,4.045h1.926
						c0.528,0,0.981-0.059,1.359-0.177c0.378-0.118,0.686-0.28,0.926-0.487c0.239-0.207,0.415-0.448,0.53-0.723
						C736.176,414.108,736.233,413.81,736.233,413.489z M737.014,407.111c0-0.25-0.037-0.473-0.112-0.669
						c-0.075-0.196-0.195-0.362-0.359-0.498c-0.164-0.135-0.378-0.241-0.642-0.316c-0.264-0.075-0.585-0.112-0.963-0.112h-1.423
						l-0.792,3.639h1.626c0.414,0,0.785-0.048,1.113-0.145c0.328-0.096,0.608-0.233,0.84-0.412c0.232-0.178,0.408-0.394,0.53-0.647
						S737.014,407.417,737.014,407.111z"/>
				</g>
			</g>
			<g>
				
					<rect x="626.349" y="393.007" transform="matrix(0.7071 0.7071 -0.7071 0.7071 474.8753 -325.1938)" style="fill:#E93C0C;" width="7.254" height="35.227"/>
				
					<rect x="626.349" y="393.007" transform="matrix(-0.7071 0.7071 -0.7071 -0.7071 1365.79 255.5197)" style="fill:#E93C0C;" width="7.254" height="35.227"/>
			</g>
			<path style="fill:#B2EBF4;" d="M761.039,625.028H591.962c-5.323,0-9.638-4.315-9.638-9.638V450.287
				c0-5.323,4.315-9.638,9.638-9.638h169.077c5.323,0,9.638,4.315,9.638,9.638V615.39
				C770.677,620.713,766.362,625.028,761.039,625.028z"/>
			<g>
				<path style="fill:#E8FCFF;" d="M758.714,487.852c0,7.928-2.938,15.173-7.794,20.697c-5.747,6.563-14.193,10.707-23.61,10.707
					c-8.462,0-16.142-3.348-21.785-8.788c-5.93-5.712-9.619-13.733-9.619-22.616c0-17.344,14.06-31.404,31.404-31.404
					C744.654,456.448,758.714,470.508,758.714,487.852z"/>
				<path style="fill:#A0D3DB;" d="M750.92,508.549c-5.747,6.563-14.193,10.707-23.61,10.707c-8.462,0-16.142-3.348-21.785-8.788
					c3.872-3.343,16.745-7.388,15.197-13.298c-3.58-13.694-4.001-29.643,8.927-29.381c12.927,0.257,3.64,23.254,4.639,30.261
					C735.099,503.722,745.173,505.537,750.92,508.549z"/>
			</g>
			<path style="fill:#AD7BEC;" d="M790.075,376.998H553.782c-0.135-8.816-0.249-16.395-0.341-22.37
				c-0.057-3.893,1.449-7.651,4.191-10.421c2.735-2.771,6.472-4.326,10.372-4.312c44.065,0.135,173.816,0.526,211.295,0.639
				c5.683,0.021,10.308,4.589,10.393,10.279C789.784,357.121,789.912,366.094,790.075,376.998z"/>
			<path style="fill:#FFC83A;" d="M578.294,359.756c0,2.821-2.287,5.108-5.108,5.108c-2.821,0-5.108-2.287-5.108-5.108
				s2.287-5.108,5.108-5.108C576.008,354.648,578.294,356.935,578.294,359.756z"/>
			<circle style="fill:#F1FFFF;" cx="587.523" cy="359.756" r="5.108"/>
			<path style="fill:#4EBDD1;" d="M606.967,359.756c0,2.821-2.287,5.108-5.108,5.108s-5.108-2.287-5.108-5.108
				s2.287-5.108,5.108-5.108S606.967,356.935,606.967,359.756z"/>
			<rect x="760.466" y="351.03" style="fill:#DEEBEB;" width="17.452" height="17.452"/>
			<g>
				<path style="fill:#ABB5B5;" d="M776.062,362.858h-9.78v-9.133h9.78V362.858z M766.933,362.208h8.478v-7.832h-8.478V362.208z"/>
			</g>
			<g>
				<path style="fill:#ABB5B5;" d="M771.108,366.37h-8.38v-8.38h8.38V366.37z M763.305,365.793h7.226v-7.226h-7.226V365.793z"/>
			</g>
			<rect x="623.191" y="351.03" style="fill:#DEEBEB;" width="113.078" height="17.452"/>
			<g>
				<path style="fill:#ABB5B5;" d="M632.391,361.889c-2.39,0-4.335-1.945-4.335-4.335c0-2.39,1.944-4.335,4.335-4.335
					c2.39,0,4.335,1.945,4.335,4.335C636.726,359.944,634.781,361.889,632.391,361.889z M632.391,354.639
					c-1.607,0-2.914,1.307-2.914,2.914c0,1.607,1.307,2.914,2.914,2.914c1.607,0,2.914-1.307,2.914-2.914
					C635.305,355.947,633.998,354.639,632.391,354.639z"/>
			</g>
			<g>
				
					<rect x="634.867" y="360.295" transform="matrix(0.8577 -0.5142 0.5142 0.8577 -96.1259 378.4302)" style="fill:#ABB5B5;" width="1.421" height="5.147"/>
			</g>
			<rect x="595.093" y="462.518" style="fill:#E8FCFF;" width="84.636" height="95.308"/>
			<rect x="701.818" y="537.16" style="fill:#E8FCFF;" width="49.102" height="63.409"/>
		</g>
		<path style="fill:#D9DDE9;" d="M229.787,774.557c70.544-31.181,720.554,28.432,563.998,102.79
			C685.567,928.745,71.953,844.321,229.787,774.557z"/>
		<g>
			
				<linearGradient id="SVGID_00000089557109379486878710000017757064510778960000_" gradientUnits="userSpaceOnUse" x1="730.7056" y1="890.6662" x2="660.8693" y2="859.7425">
				<stop  offset="0" style="stop-color:#7A7A7A"/>
				<stop  offset="1" style="stop-color:#000000"/>
			</linearGradient>
			<path style="fill:url(#SVGID_00000089557109379486878710000017757064510778960000_);" d="M612.142,869.409
				c-11.694,4.849,104.979,3.087,117.062-9.062C741.286,848.198,623.15,864.844,612.142,869.409z"/>
			<path style="fill:#FFD7C6;" d="M665.048,705.705c-1.193,2.834-2.131,5.186-2.792,7.75c-1.144,4.404-1.471,9.427-0.895,18.562
				c0.916,14.477-3.112,39.675-6.052,55.054c-2.948,15.38-19.216,57.647-20.779,65.035c-0.298,1.442-0.533,2.721-0.703,3.879
				c-0.256,1.691-0.384,3.112-0.398,4.369c-0.035,2.28,0.27,4.021,0.76,5.861c0.895,3.367-3.779,2.706-9.938,3.232
				c-7.58,0.639-17.369,1.883-19.308,0.547c-1.712-1.179,3.438-2.77,8.617-4.639c4.355-1.563,8.716-3.325,9.043-5.179
				c0.717-4.078,0.739-4.234,0.881-14.35c0.234-16.097,3.111-75.79,2.728-91.227c-0.391-15.429-1.051-22.285-1.549-52.561
				c-0.114-6.969,1.712-12.034,4.674-15.635c4.753-5.804,12.425-7.814,19.571-7.871c7.722-0.071,14.84,2.138,17.035,4.319
				C671.435,688.322,668.288,698.018,665.048,705.705z"/>
			
				<linearGradient id="SVGID_00000030450966636238203730000003481706678860955321_" gradientUnits="userSpaceOnUse" x1="640.2559" y1="727.2998" x2="649.6129" y2="684.0311">
				<stop  offset="0" style="stop-color:#7A7A7A"/>
				<stop  offset="1" style="stop-color:#000000"/>
			</linearGradient>
			<path style="fill:url(#SVGID_00000030450966636238203730000003481706678860955321_);" d="M665.943,682.852
				c5.491,5.47,2.344,15.167-0.895,22.853c-1.193,2.834-2.131,5.186-2.792,7.75c-6.543,7.85-33.736,2.238-37.593-11.416
				c0.796-6.464,2.437-11.593,4.674-15.635c4.753-5.804,12.425-7.814,19.571-7.871C656.63,678.461,663.748,680.671,665.943,682.852z
				"/>
			<path style="fill:#FFD7C6;" d="M723.704,855.637c-7.637,2.245-17.426,5.534-19.678,4.688c-1.89-0.71,2.472-3.112,7.132-5.825
				c4.39-2.55,9.036-5.37,9.001-7.324c-0.078-4.028-0.085-4.177-1.961-13.838c-2.984-15.358-26.412-68.097-29.886-82.695
				c-3.111-13.021-5.072-19.493-10.123-41.095c-0.483-2.074-0.995-4.291-1.534-6.67c-0.149-0.618-0.291-1.25-0.441-1.897
				c-0.923-4.035-1.172-7.53-0.902-10.542c0.483-5.392,2.635-9.242,5.584-11.899c5.917-5.349,15.039-5.91,20.288-4.539
				c1.065,0.277,1.968,0.632,2.65,1.044c4.17,2.493,8.226,7.658,10.755,13.597c1.534,3.609,2.501,7.509,2.579,11.26v0.036
				c0.156,8.198-0.341,15.053,3.481,28.628c3.829,13.575,6.315,30.71,6.372,45.969c0.064,15.266,4.816,52.561,4.696,59.928
				c-0.064,3.822-0.1,7.125,0.114,9.86c0.021,0.277,0.043,0.547,0.071,0.81c0.227,2.181,0.632,3.943,1.343,5.292
				C734.836,853.435,729.913,853.819,723.704,855.637z"/>
			
				<linearGradient id="SVGID_00000060721178443289471100000010915437086259615368_" gradientUnits="userSpaceOnUse" x1="713.1821" y1="715.9645" x2="684.6017" y2="687.2513">
				<stop  offset="0" style="stop-color:#7A7A7A"/>
				<stop  offset="1" style="stop-color:#000000"/>
			</linearGradient>
			<path style="fill:url(#SVGID_00000060721178443289471100000010915437086259615368_);" d="M717.169,699.901
				c-0.007,0.021-0.007,0.043-0.014,0.064c-1.605,8.255-27.769,15.934-38.964,9.583c-0.483-2.074-0.995-4.291-1.534-6.67
				l37.934-14.236C716.125,692.25,717.091,696.15,717.169,699.901z"/>
			
				<linearGradient id="SVGID_00000126318566370560324220000009301361398766733495_" gradientUnits="userSpaceOnUse" x1="703.1221" y1="764.6641" x2="748.772" y2="747.3231">
				<stop  offset="0" style="stop-color:#7A7A7A"/>
				<stop  offset="1" style="stop-color:#000000"/>
			</linearGradient>
			<path style="fill:url(#SVGID_00000126318566370560324220000009301361398766733495_);" d="M731.902,845.131
				c-0.227-1.414-7.637-47.006-14.215-81.104c-6.145-31.861-16.452-51.105-16.502-90.026c1.065,0.277,1.968,0.632,2.65,1.044
				c6.713,4.014,13.149,14.975,13.334,24.892c0.156,8.198-0.341,15.053,3.481,28.628c3.829,13.575,6.315,30.71,6.372,45.969
				c0.064,15.266,4.816,52.561,4.696,59.928c-0.064,3.822-0.1,7.125,0.114,9.86C731.852,844.598,731.874,844.868,731.902,845.131z"
				/>
			
				<linearGradient id="SVGID_00000108999304138197371020000008647810926691774080_" gradientUnits="userSpaceOnUse" x1="633.8269" y1="767.2582" x2="668.9338" y2="767.2582">
				<stop  offset="0" style="stop-color:#7A7A7A"/>
				<stop  offset="1" style="stop-color:#000000"/>
			</linearGradient>
			<path style="fill:url(#SVGID_00000108999304138197371020000008647810926691774080_);" d="M665.048,705.705
				c-3.239,7.686-4.596,11.835-3.687,26.312c0.916,14.477-3.112,39.675-6.052,55.054c-2.948,15.38-19.216,57.647-20.779,65.035
				c-0.298,1.442-0.533,2.721-0.703,3.879c-0.007,0.007,0.064-16.644,7.31-56.653c6.621-36.528,6.081-89.408,7.771-120.8
				c7.722-0.071,14.84,2.138,17.035,4.319C671.435,688.322,668.288,698.018,665.048,705.705z"/>
			<path style="fill:#392F6E;" d="M680.897,678.54c-0.121,0.256-2.451,5.463-5.584,11.899
				C675.796,685.047,677.949,681.196,680.897,678.54z"/>
			
				<linearGradient id="SVGID_00000170260364609219973480000010633614888894478471_" gradientUnits="userSpaceOnUse" x1="684.7083" y1="530.799" x2="705.3713" y2="531.5851">
				<stop  offset="0" style="stop-color:#3CA5BA"/>
				<stop  offset="1" style="stop-color:#4FBCD1"/>
			</linearGradient>
			<path style="fill:url(#SVGID_00000170260364609219973480000010633614888894478471_);" d="M693.04,486.046
				c4.845,4.592,10.754,26.306,12.518,36.076c1.764,9.768-0.15,27.714-2.555,36.607c-2.407,8.893-3.688,14.209-7.513,16.92
				c-3.828,2.713-8.069-1.999-8.457-5.714c-0.388-3.718-2.778-16.118-0.481-26.729C688.852,532.594,688.193,481.454,693.04,486.046
				L693.04,486.046z"/>
			<g>
				<defs>
					<path id="SVGID_00000056399872794198131240000007839529089527452560_" d="M716.942,700.455
						c-2.124,2.834-36.478,5.427-62.656,5.363c-16.253-0.043-29.36-1.108-29.623-3.779c-0.696-6.969,1.179-71.173,6.933-89.586
						c5.747-18.406,20.559-58.926,30.589-59.942c6.82-0.689,15.742-0.881,22.079,0.49c2.998,0.647,5.413,1.641,6.763,3.09
						c4.205,4.525,6.464,6.805,14.257,24.451C713.084,598.182,720.024,696.342,716.942,700.455z"/>
				</defs>
				<clipPath id="SVGID_00000041297047192191446820000004645470709069452984_">
					<use xlink:href="#SVGID_00000056399872794198131240000007839529089527452560_"  style="overflow:visible;"/>
				</clipPath>
				<path style="clip-path:url(#SVGID_00000041297047192191446820000004645470709069452984_);fill:#392F6E;" d="M716.942,700.455
					c-2.124,2.834-36.478,5.427-62.656,5.363c-16.253-0.043-29.36-1.108-29.623-3.779c-0.696-6.969,1.179-71.173,6.933-89.586
					c5.747-18.406,20.559-58.926,30.589-59.942c6.82-0.689,15.742-0.881,22.079,0.49c2.998,0.647,5.413,1.641,6.763,3.09
					c4.205,4.525,6.464,6.805,14.257,24.451C713.084,598.182,720.024,696.342,716.942,700.455z"/>
				<g style="clip-path:url(#SVGID_00000041297047192191446820000004645470709069452984_);">
					<path style="fill:#52449E;" d="M664.93,544.202c-12.812,17.562-19.697,38.347-23.908,59.481
						c-4.629,23.224-7.524,47.167-8.262,70.834c-0.435,13.939,0.141,27.875,2.119,41.686c0.377,2.632,4.343,1.501,3.989-1.1
						c-3.298-24.201-2.271-48.685,0.481-72.884c2.455-21.588,5.618-43.353,12.526-64.025c3.83-11.46,9.055-22.37,16.046-32.244
						C669.217,544.119,666.227,542.424,664.93,544.202L664.93,544.202z"/>
				</g>
				<g style="clip-path:url(#SVGID_00000041297047192191446820000004645470709069452984_);">
					<path style="fill:#52449E;" d="M671.165,545.201c-10.066,20.23-14.466,42.474-17.239,64.739
						c-3.03,24.325-4.274,48.904-3.541,73.408c0.208,6.937,0.563,13.868,1.065,20.79c0.494,6.809,0.784,13.838,2.082,20.549
						c0.413,2.136,3.847,1.639,3.779-0.512c-0.371-11.756-2.063-23.501-2.526-35.279c-0.472-12.016-0.532-24.056-0.16-36.076
						c0.716-23.142,2.691-46.553,7.354-69.259c2.6-12.661,6.34-25.075,11.969-36.734
						C674.843,544.973,672.092,543.337,671.165,545.201L671.165,545.201z"/>
				</g>
				<g style="clip-path:url(#SVGID_00000041297047192191446820000004645470709069452984_);">
					<path style="fill:#52449E;" d="M675.238,546.504c-6.697,45.971-8.896,92.521-6.781,138.927
						c0.596,13.072,1.203,26.28,2.967,39.254c0.277,2.036,3.701,1.556,3.59-0.486c-0.804-14.784-2.233-29.509-2.774-44.316
						c-0.54-14.799-0.619-29.607-0.337-44.412c0.563-29.595,2.894-59.159,6.688-88.512
						C678.836,545.068,675.515,544.599,675.238,546.504L675.238,546.504z"/>
				</g>
				<g style="clip-path:url(#SVGID_00000041297047192191446820000004645470709069452984_);">
					<path style="fill:#52449E;" d="M681.325,546.172c1.346,57.84,3.634,115.762,6.66,173.538c0.117,2.242,3.567,2.273,3.511,0
						c-1.426-57.839-3.602-115.765-6.708-173.538C684.669,543.961,681.273,543.929,681.325,546.172L681.325,546.172z"/>
				</g>
				<g style="clip-path:url(#SVGID_00000041297047192191446820000004645470709069452984_);">
					<path style="fill:#52449E;" d="M686.006,546.148c0.411,14.281,4.69,28.177,7.215,42.168c2.642,14.64,4.598,29.402,6.087,44.202
						c2.931,29.147,3.572,58.38,5.291,87.601c0.143,2.421,3.843,2.465,3.8,0c-0.515-29.2-2.126-58.543-5.075-87.601
						c-1.445-14.245-3.324-28.448-5.874-42.54c-2.63-14.536-7.348-29.055-8.269-43.829
						C689.054,544.127,685.947,544.09,686.006,546.148L686.006,546.148z"/>
				</g>
				<g style="clip-path:url(#SVGID_00000041297047192191446820000004645470709069452984_);">
					<path style="fill:#52449E;" d="M689.58,549.939c8.061,23.626,13.762,48.021,18.006,72.603
						c4.263,24.691,6.692,49.597,10.173,74.394c0.261,1.862,3.474,1.441,3.307-0.448c-2.203-24.839-5.499-49.716-9.697-74.297
						c-4.244-24.852-9.918-49.422-18.497-73.159C692.134,546.987,688.865,547.842,689.58,549.939L689.58,549.939z"/>
				</g>
			</g>
			
				<linearGradient id="SVGID_00000043453077528641847280000009293366106016226734_" gradientUnits="userSpaceOnUse" x1="690.1238" y1="645.6417" x2="585.9387" y2="557.8785">
				<stop  offset="0" style="stop-color:#7A7A7A"/>
				<stop  offset="1" style="stop-color:#2E2E2E"/>
			</linearGradient>
			<path style="fill:url(#SVGID_00000043453077528641847280000009293366106016226734_);" d="M716.942,700.455
				c-2.124,2.834-36.478,5.427-62.656,5.363c14.904-15.934,53.172-118.307,29.978-152.817c2.998,0.647,5.413,1.641,6.763,3.09
				c4.205,4.525,6.464,6.805,14.257,24.451C713.084,598.182,720.024,696.342,716.942,700.455z"/>
			<path style="fill:#FFC2B0;" d="M668.069,473.586c0.143,0.386,1.458,7.991-1.806,10.852c-3.267,2.861,7.954,0.691,7.954,0.691
				l0.068-10.176C674.285,474.953,667.461,471.952,668.069,473.586L668.069,473.586z"/>
			<path style="fill:#4FBCD1;" d="M704.908,568.502c0,0-3.68,6.237-11.814,1.541c-3.538-2.039-8.39-8.12-9-15.387
				c0,0-1.392,13.767-9.334,17.703c-3.957,1.961-11.323,4.433-18.086,5.811c-6.82,1.385-13.021,1.669-14.485-0.81
				c-2.913-4.937-0.433-71.741,2.302-79.562c2.735-7.821,8.766-15.87,21.83-15.543c4.774,0.121,8.865,0.184,12.403,0.391
				c6.152,0.355,10.663,1.144,14.314,3.403c5.761,3.559,7.843,33.438,2.87,51.24C691.346,553.598,699.026,567.997,704.908,568.502z"
				/>
			
				<linearGradient id="SVGID_00000036943376304647522760000010087370802223113124_" gradientUnits="userSpaceOnUse" x1="653.2619" y1="524.8906" x2="730.9688" y2="549.9144">
				<stop  offset="0" style="stop-color:#7A7A7A"/>
				<stop  offset="1" style="stop-color:#2E2E2E"/>
			</linearGradient>
			<path style="fill:url(#SVGID_00000036943376304647522760000010087370802223113124_);" d="M704.908,568.502
				c0,0-3.68,6.237-11.814,1.541c-3.538-2.039-8.39-8.12-9-15.387c0,0-1.392,13.767-9.334,17.703
				c-3.957,1.961-11.323,4.433-18.086,5.811c36.471-23.016,35.746-88.677,22.05-95.525c6.152,0.355,10.663,1.144,14.314,3.403
				c5.761,3.559,7.843,33.438,2.87,51.24C691.346,553.598,699.026,567.997,704.908,568.502z"/>
			
				<linearGradient id="SVGID_00000078730885259719904260000016457767075738749362_" gradientUnits="userSpaceOnUse" x1="629.3354" y1="559.3329" x2="706.4786" y2="543.094">
				<stop  offset="0" style="stop-color:#7A7A7A"/>
				<stop  offset="1" style="stop-color:#000000"/>
			</linearGradient>
			<path style="fill:url(#SVGID_00000078730885259719904260000016457767075738749362_);" d="M659.787,504.486
				c3.368,34.948,9.006,61.797-7.77,90.802c-12.628,21.833-20.007,2.677-13.563-14.775
				C644.898,563.062,659.787,504.486,659.787,504.486z"/>
			<path style="fill:#392F6E;" d="M723.704,855.637c-7.637,2.245-17.426,5.534-19.678,4.688c-1.89-0.71,2.472-3.112,7.132-5.825
				c1.129,2.018,17.923-6.542,20.672-10.18c0.199,2.536,0.611,4.582,1.414,6.102C734.836,853.435,729.913,853.819,723.704,855.637z"
				/>
			<g>
				<g>
					<path style="fill:#8C4D3E;" d="M628.194,673.504c-0.15-0.13,7.198-46.936,12.526-48.75c3.432,2.292,9.438,20.269,11.159,25.5
						c1.719,5.228,5.866,18.192,4.531,20.036C654.47,672.966,630.836,674.418,628.194,673.504L628.194,673.504z"/>
					<path style="fill:#B56450;" d="M636.768,643.354c-3.239,13.845-7.459,30.326-8.574,30.148
						c-6.87-1.087-35.718-7.004-36.606-11.465c-0.469-2.365,3.992-13.029,8.794-22.732c4.241-8.56,8.752-16.367,10.386-17.07
						c3.481-1.485,27.2-0.227,29.949,2.522C640.895,624.935,639.084,633.473,636.768,643.354z"/>
					<path style="fill:#B56450;" d="M617.638,621.605c0.453-3.039,1.172-7.843,4.752-11.128c1.956-1.793,6.002-2.678,8.951-0.777
						c2.763,1.781,3.565,7.315,3.813,8.703c0.246,1.39,0.133,2.252-0.225,4.512c-0.356,2.262-1.228,3.768-2.242,3.039
						c-1.012-0.731-0.599-0.145-0.346-3.424c0.286-3.71-0.428-10.617-6.03-10.617c-4.108,0-6.714,13.154-6.776,13.227
						C617.422,627.5,617.332,623.662,617.638,621.605L617.638,621.605z"/>
				</g>
				<path style="fill:#FFD7C6;" d="M631.54,602.259c-1.428,1.932-2.337,5.413-2.28,8.191c0.035,1.662,0.014,2.131,1.137,3.353
					c-3.09-0.369-6.955,3.949-8.077,1.314c-0.071-0.17-0.128-0.355-0.178-0.575c-0.803-3.758,0.604-8.922,3.893-13.284
					c0,0,1.982-0.533,3.651-0.66C631.327,600.469,632.669,600.732,631.54,602.259z"/>
				
					<linearGradient id="SVGID_00000123428264305920889840000016578718818811737009_" gradientUnits="userSpaceOnUse" x1="622.319" y1="608.2712" x2="636.3399" y2="608.2712">
					<stop  offset="0" style="stop-color:#7A7A7A"/>
					<stop  offset="1" style="stop-color:#000000"/>
				</linearGradient>
				<path style="fill:url(#SVGID_00000123428264305920889840000016578718818811737009_);" d="M631.54,602.259
					c-1.428,1.932-2.337,5.413-2.28,8.191c0.035,1.662,0.014,2.131,1.137,3.353c-3.09-0.369-6.955,3.949-8.077,1.314
					c4.447,2.827,4.205-7.729,7.367-14.52C631.327,600.469,632.669,600.732,631.54,602.259z"/>
				<path style="fill:#4FBCD1;" d="M623.283,599.643c1.623-5.919,7.46-33.413,11.521-48.674
					c4.063-15.263,8.618-52.184,10.203-54.251c1.588-2.067,12.085-5.634,14.014,1.571c1.929,7.205,1.879,54.203-1.811,64.629
					c-3.688,10.426-14.555,37.574-19.66,41.364C637.55,604.282,621.852,604.864,623.283,599.643L623.283,599.643z"/>
				<circle style="fill:#3C8E9E;" cx="629.137" cy="598.465" r="0.969"/>
				<circle style="fill:#3C8E9E;" cx="630.99" cy="592.474" r="0.969"/>
				<path style="fill:#A15947;" d="M636.768,643.354c-11.48,8.61-37.245,1.364-36.386-4.049c4.241-8.56,8.752-16.367,10.386-17.07
					c3.481-1.485,27.2-0.227,29.949,2.522C640.895,624.935,639.084,633.473,636.768,643.354z"/>
				<path style="fill:#FFC83A;" d="M610.4,645.796c-1.084,2.823,6.644,3.825,7.452,1.333
					C619.123,643.206,611.879,641.942,610.4,645.796z"/>
			</g>
			<path style="fill:#392F6E;" d="M624.251,869.447c-7.58,0.639-17.369,1.883-19.308,0.547c-1.712-1.179,3.438-2.77,8.617-4.639
				c1.968,1.314,18.051-1.584,19.862-5.008c-0.028,2.288,0.277,4.028,0.767,5.868C635.085,869.582,630.41,868.921,624.251,869.447z"
				/>
			<path style="fill:#FFD6CA;" d="M669.435,475.279c-3.497,0-5.396-0.952-5.474-3.119c-0.078-2.164,0.719-5.165,2.5-7.074
				c1.781-1.909,3.948-2.981,5.236-1.751c1.29,1.23,2.488,2.024,2.488,4.301C674.184,471.133,672.932,475.279,669.435,475.279
				L669.435,475.279z"/>
			<path style="fill:#3C2C75;" d="M671.356,500.052l7.101,0.046l1.411-10.737l0.302,11.981l14.352-1.141
				c0,0-7.726-21.982-9.316-28.721c-1.593-6.739-2.044-6.616-3.858-8.046c-1.816-1.433-1.503-2.062-2.946-4.346
				c-1.44-2.285-4.822-4.464-6.904-2.59c-2.082,1.871-3.204,3.755-2.307,5.804c0.894,2.047,3.562,4.725,3.85,6.461
				c0.288,1.736-2.242,9.82-2.515,13.828C670.254,486.597,671.356,500.052,671.356,500.052L671.356,500.052z"/>
			
				<linearGradient id="SVGID_00000178176572611958621800000010654516783086549133_" gradientUnits="userSpaceOnUse" x1="671.6385" y1="470.5161" x2="676.5005" y2="470.5161">
				<stop  offset="0" style="stop-color:#FFD6CA"/>
				<stop  offset="1" style="stop-color:#FFC2B0"/>
			</linearGradient>
			<path style="fill:url(#SVGID_00000178176572611958621800000010654516783086549133_);" d="M671.672,470.933
				c0.348-1.46,1.01-1.621,1.543-2.012c0.536-0.391,2.475-0.857,3.131,0.601c0.654,1.448-0.927,2.676-1.814,2.924
				C673.821,472.644,671.323,472.391,671.672,470.933L671.672,470.933z"/>
		</g>
		<g>
			
				<linearGradient id="SVGID_00000110458931991668416010000004916625112718443652_" gradientUnits="userSpaceOnUse" x1="301.6292" y1="816.7531" x2="386.7942" y2="786.5635">
				<stop  offset="0" style="stop-color:#7A7A7A"/>
				<stop  offset="1" style="stop-color:#000000"/>
			</linearGradient>
			<path style="fill:url(#SVGID_00000110458931991668416010000004916625112718443652_);" d="M292.371,797.185
				c-17.794,4.592,163.376-0.792,140.017-5.873C409.03,786.231,317.34,790.741,292.371,797.185z"/>
			<path style="fill:#392F6E;" d="M459.251,531.683c-0.107,1.414-1.868,1.953-3.708,1.797c-2.174-0.171-4.454-1.314-4.191-3.133
				c0,0,5.939-55.566,6.841-57.477c0.511-1.08,1.904-1.847,3.225-1.733c1.25,0.121,2.444,1.044,2.721,3.282
				C464.707,478.994,459.529,527.975,459.251,531.683z"/>
			
				<linearGradient id="SVGID_00000018201916153172648900000009721001667782979760_" gradientUnits="userSpaceOnUse" x1="461.1676" y1="502.1372" x2="429.3408" y2="503.9814">
				<stop  offset="0" style="stop-color:#7A7A7A"/>
				<stop  offset="1" style="stop-color:#2E2E2E"/>
			</linearGradient>
			<path style="fill:url(#SVGID_00000018201916153172648900000009721001667782979760_);" d="M461.418,471.137l-5.875,62.343
				c-2.174-0.171-4.454-1.314-4.191-3.133c0,0,5.939-55.566,6.841-57.477C458.704,471.791,460.097,471.024,461.418,471.137z"/>
			<path style="fill:#B46551;" d="M325.742,779.279c0,0-1.481,4.813-2.888,7.331c-1.407,2.518,11.626,9.479,13.329,9.331
				c1.703-0.148,8.59-1.555,7.775-3.184c-0.815-1.629-8.111,0-10.572-4.591c-2.461-4.591-2.017-8.886-2.017-8.886H325.742z"/>
			
				<linearGradient id="SVGID_00000083055363664142250400000012457303630266952068_" gradientUnits="userSpaceOnUse" x1="325.888" y1="653.0004" x2="392.8521" y2="674.2424">
				<stop  offset="0" style="stop-color:#392F6E"/>
				<stop  offset="1" style="stop-color:#2C2454"/>
			</linearGradient>
			<path style="fill:url(#SVGID_00000083055363664142250400000012457303630266952068_);" d="M374.382,680.131
				c-3.353,29.772-20.594,95.148-23.656,100.561c-2.458,4.34-14.165,3.41-20.935,1.648c-1.677-0.433-3.04-0.924-3.9-1.393
				c-4.355-2.38-0.568-16.225,0.554-29.964c1.122-13.739,6.941-45.757,15.408-84.822c6.83-31.511,5.116-57.303,4.607-93.435
				c-0.271-19.212,2.106-25.395,6.844-33.87c2.081-3.729,6.678-4.319,11.132-1.151c5.676,4.028,11.132,14.151,10.926,31.662
				C374.979,600.625,377.735,650.359,374.382,680.131z"/>
			
				<linearGradient id="SVGID_00000043425781687688549340000007877635232750964893_" gradientUnits="userSpaceOnUse" x1="334.9175" y1="662.8322" x2="431.5556" y2="652.1291">
				<stop  offset="0" style="stop-color:#7A7A7A"/>
				<stop  offset="1" style="stop-color:#2E2E2E"/>
			</linearGradient>
			<path style="fill:url(#SVGID_00000043425781687688549340000007877635232750964893_);" d="M374.382,680.131
				c-3.353,29.772-20.594,95.148-23.656,100.561c-2.458,4.34-14.165,3.41-20.935,1.648c4.369-14.286,18.946-61.178,30.106-89.6
				c12.225-31.122-13.436-82.156,4.539-155.033c5.676,4.028,11.132,14.151,10.926,31.662
				C374.979,600.625,377.735,650.359,374.382,680.131z"/>
			<path style="fill:#B46551;" d="M426.405,784.434c0,0,0.062,5.998,0.084,7.413c0.022,1.416,23.172,1.575,23.369-0.902
				c0.091-1.138-14.906-3.071-16.212-7.821L426.405,784.434z"/>
			<path style="fill:#FFD7C3;" d="M463.507,515.188c-0.035,0.334-0.107,0.59-0.227,0.703c-0.632,0.604-5.015-0.909-6.074,0
				c-1.058,0.909-3.573,2.366-4.532,4.277c-0.952,1.918-5.129,0.76-10.215-1.762c-1.073-0.533-1.676-1.016-1.946-1.449
				c-1.023-1.62,2.451-2.522,2.451-2.522c2.82-0.206,4.93,0.298,5.839-1.819c0.902-2.11,5.335-6.336,6.948-6.336
				c1.605,0,6.542,1.705,7.246,2.415c0.703,0.703-0.149,0.902,0,1.662C463.116,510.961,463.634,513.796,463.507,515.188z"/>
			
				<linearGradient id="SVGID_00000183927507568919896290000011761346534362473103_" gradientUnits="userSpaceOnUse" x1="440.5116" y1="517.7307" x2="463.5065" y2="517.7307">
				<stop  offset="0" style="stop-color:#7A7A7A"/>
				<stop  offset="1" style="stop-color:#2E2E2E"/>
			</linearGradient>
			<path style="fill:url(#SVGID_00000183927507568919896290000011761346534362473103_);" d="M463.507,515.188
				c-0.035,0.334-0.107,0.59-0.227,0.703c-0.632,0.604-5.015-0.909-6.074,0c-1.058,0.909-3.573,2.366-4.532,4.277
				c-0.952,1.918-5.129,0.76-10.215-1.762c-1.073-0.533-1.676-1.016-1.946-1.449c3.332,1.122,9.263,2.834,10.301,1.151
				c1.463-2.365,6.798-4.227,8.155-3.673C460.004,514.847,461.901,515.65,463.507,515.188z"/>
			<polygon style="fill:#FFD7C3;" points="366.239,459.66 364.527,466.284 375.301,468.621 376.106,460.012 			"/>
			<path style="fill:#392F6E;" d="M433.55,783.598c-1.677,2.394-13.234,3.808-18.96,3.005c-1.499-0.206-2.6-0.568-3.012-1.101
				c-2.003-2.572-11.856-36.308-13.824-45.564c-1.968-9.263-23.478-75.279-32.365-110.776c-8.894-35.498-13.952-39.227-8.922-71.159
				c1.705-10.84,5.683-17.347,10.428-20.843c9.235-6.791,21.397-2.188,25.545,4.113c6.287,9.547,7.764,13.014,13.76,30.902
				C412.196,590.062,435.667,780.578,433.55,783.598z"/>
			
				<linearGradient id="SVGID_00000097458989425518118570000001767164691090987915_" gradientUnits="userSpaceOnUse" x1="363.0071" y1="655.5983" x2="432.5147" y2="671.4116">
				<stop  offset="0" style="stop-color:#7A7A7A"/>
				<stop  offset="1" style="stop-color:#2E2E2E"/>
			</linearGradient>
			<path style="fill:url(#SVGID_00000097458989425518118570000001767164691090987915_);" d="M414.59,786.603
				c-1.499-0.206-2.6-0.568-3.012-1.101c-2.003-2.572-11.856-36.308-13.824-45.564c-1.968-9.263-23.478-75.279-32.365-110.776
				c-8.894-35.498-13.952-39.227-8.922-71.159c1.705-10.84,5.683-17.347,10.428-20.843
				C365.368,595.788,404.254,747.432,414.59,786.603z"/>
			<path style="fill:#FFC83A;" d="M343.392,476.767c-2.505,3.52-7.821,15.619-8.239,24.725c-0.418,9.106,0.496,34.335,10.103,32.484
				c9.587-1.851,13.062-18.12,12.546-24.598C357.626,507.204,345.897,473.25,343.392,476.767L343.392,476.767z"/>
			
				<linearGradient id="SVGID_00000084518141469653531000000001223373605576425102_" gradientUnits="userSpaceOnUse" x1="341.6654" y1="514.2048" x2="359.0295" y2="499.0586">
				<stop  offset="0" style="stop-color:#7A7A7A"/>
				<stop  offset="1" style="stop-color:#2E2E2E"/>
			</linearGradient>
			<path style="fill:url(#SVGID_00000084518141469653531000000001223373605576425102_);" d="M341.485,483.321
				c0.086,22.553,12.989,50.752,12.989,50.752l10.053-42.497L341.485,483.321z"/>
			<path style="fill:#AD7BEC;" d="M394.635,512.801c-2.472,8.951-2.089,17.056-2.692,21.965c-0.142,1.165-0.334,2.145-0.639,2.919
				c-1.918,4.888-36.137,8.795-40.406-2.28c-0.788-2.039,0.284-7.253,0.71-9.341c0.426-2.096,0.661-6.521-0.199-9.597
				c-0.696-2.486-7.836-18.711-9.555-29.168c-0.419-2.543-0.518-4.752-0.121-6.329c2.032-8.063,9.384-12.837,13.93-13.945
				c4.539-1.094,25.354-1.428,31.868,1.705c6.521,3.126,10.045,10.833,10.606,14.222C398.706,486.34,397.69,501.733,394.635,512.801
				z"/>
			
				<linearGradient id="SVGID_00000162332888222081953530000006586779486479692947_" gradientUnits="userSpaceOnUse" x1="344.7222" y1="524.708" x2="388.7085" y2="500.7475">
				<stop  offset="0" style="stop-color:#7A7A7A"/>
				<stop  offset="1" style="stop-color:#2E2E2E"/>
			</linearGradient>
			<path style="fill:url(#SVGID_00000162332888222081953530000006586779486479692947_);" d="M391.943,534.766
				c-0.142,1.165-0.334,2.145-0.639,2.919c-1.918,4.888-36.137,8.795-40.406-2.28c-0.788-2.039,0.284-7.253,0.71-9.341
				c0.426-2.096,0.661-6.521-0.199-9.597c-0.696-2.486-7.836-18.711-9.555-29.168c4.752,10.62,24.892,24.615,25.289,35.896
				C367.548,534.468,374.453,543.916,391.943,534.766z"/>
			<path style="fill:#FFD7C3;" d="M379.63,460.365c-0.751,1.48-3.337,2.731-6.413,3.477c-3.154,0.774-6.628,0.234-8.454-2.138
				c-1.946-2.529-6.194-15.813,5.122-16.829c2.501-0.22,4.411,0.192,5.861,1.009C380.833,448.739,380.511,458.628,379.63,460.365z"
				/>
			<path style="fill:#915142;" d="M371.022,463.888c-3.187,0.624-4.432,0.188-6.258-2.185c-0.875-1.137-2.703-5.363-4.062-8.639
				c-1.963-4.732,1.827-8.2,8.055-8.76c2.5-0.22,6.335-1.824,7.784-1.007c1.753,1.479,0.271,8.055-1.874,8.886
				c0,0-3.628-2.224-2.823,2.005c0.277,1.454,2.631,1.682,3.256,2.719C375.099,460.516,372.719,463.556,371.022,463.888z"/>
			<path style="fill:#FFC83A;" d="M442.074,525.943c-4.106,2.01-36.109,13.028-49.784,4.163
				c-13.668-8.873-12.829-35.128-9.05-47.489c0.277-0.909,1.364-3.559,2.714-6.102c1.769-3.332,3.971-6.472,5.363-5.236
				c2.387,2.131,9.91,9.036,11.167,28.266c0.22,3.396,5.072,11.48,24.956,11.274c4.099-0.036,14.954-0.419,16.531,2.728
				c0.348,0.689,0.646,1.57,0.86,2.557C445.591,519.614,445.271,524.366,442.074,525.943z"/>
			
				<linearGradient id="SVGID_00000081645177161912214680000003207281144009904544_" gradientUnits="userSpaceOnUse" x1="420.9207" y1="490.7573" x2="387.02" y2="545.4373">
				<stop  offset="0" style="stop-color:#7A7A7A"/>
				<stop  offset="1" style="stop-color:#2E2E2E"/>
			</linearGradient>
			<path style="fill:url(#SVGID_00000081645177161912214680000003207281144009904544_);" d="M442.074,525.943
				c-4.106,2.01-36.109,13.028-49.784,4.163c-13.668-8.873-12.829-35.128-9.05-47.489c0.277-0.909,1.364-3.559,2.714-6.102
				c-2.501,23.719,8.674,48.064,20.459,46.473c7.452-1.002,5.236-9.519,7.651-9.285c2.415,0.227,11.778,10.627,30.759,2.408
				C445.591,519.614,445.271,524.366,442.074,525.943z"/>
			<path style="fill:#8E64C2;" d="M461.042,470.683c-1.762,0.121-3.545,0.099-5.342-0.107c-1.918-0.22-3.779-0.625-5.583-1.208
				c-0.547-0.178-1.073-0.369-1.584-0.568c-14.975-5.818-24.643-23.897-22.355-43.965c2.451-21.553,17.83-37.792,35.249-38.126
				c1.258-0.014,2.522,0.042,3.786,0.185c1.79,0.206,3.538,0.575,5.221,1.094c-16.779,1.236-31.313,17.142-33.693,38.048
				C434.367,446.949,444.973,465.717,461.042,470.683z"/>
			
				<linearGradient id="SVGID_00000183226356866982484850000010606143067314035898_" gradientUnits="userSpaceOnUse" x1="442.5009" y1="417.4362" x2="494.7137" y2="444.1721">
				<stop  offset="0" style="stop-color:#F1FFFF"/>
				<stop  offset="1" style="stop-color:#CFDBDB"/>
			</linearGradient>
			<path style="opacity:0.53;fill:url(#SVGID_00000183226356866982484850000010606143067314035898_);" d="M494.735,432.635
				c-2.373,20.906-16.914,36.812-33.693,38.048c-16.069-4.966-26.675-23.734-24.302-44.647c2.38-20.906,16.914-36.812,33.693-38.048
				C486.509,392.953,497.115,411.714,494.735,432.635z"/>
			
				<linearGradient id="SVGID_00000085228644846717188050000003397242460267043722_" gradientUnits="userSpaceOnUse" x1="445.368" y1="420.8538" x2="469.8457" y2="433.3878">
				<stop  offset="0" style="stop-color:#F1FFFF"/>
				<stop  offset="1" style="stop-color:#F2FFFF"/>
			</linearGradient>
			<path style="opacity:0.53;fill:url(#SVGID_00000085228644846717188050000003397242460267043722_);" d="M462.721,394.139
				c-17.72,12.619-27.052,48.425-7.082,67.574C450.102,444.616,444.195,426.358,462.721,394.139z"/>
			<path style="fill:#AD7BEB;" d="M505.305,433.835c-2.195,19.322-14.783,34.375-29.914,37.515c-0.021,0-0.043,0.014-0.057,0.014
				c-6.592,1.726-17.745,0.526-25.218-1.996c1.804,0.583,3.665,0.987,5.583,1.208c1.797,0.206,3.58,0.227,5.342,0.107
				c16.779-1.236,31.321-17.142,33.693-38.048c2.38-20.921-8.226-39.682-24.302-44.647c-1.684-0.519-3.431-0.888-5.221-1.094
				c-1.264-0.142-2.529-0.199-3.786-0.185c5.733-0.234,14.954,0.952,19.869,2.571c0.064,0.029,0.142,0.043,0.206,0.071
				C497.292,394.551,507.657,413.135,505.305,433.835z"/>
		</g>
	</g>
</g>
</svg>
